<svg xmlns="http://www.w3.org/2000/svg" style="display: none;">

    <symbol id="magnifying-glass" viewBox="0 0 512 512">
      <path d="M484.1,454.796l-110.5-110.6c29.8-36.3,47.6-82.8,47.6-133.4c0-116.3-94.3-210.6-210.6-210.6S0,94.496,0,210.796   s94.3,210.6,210.6,210.6c50.8,0,97.4-18,133.8-48l110.5,110.5c12.9,11.8,25,4.2,29.2,0C492.5,475.596,492.5,463.096,484.1,454.796z    M41.1,210.796c0-93.6,75.9-169.5,169.5-169.5s169.6,75.9,169.6,169.5s-75.9,169.5-169.5,169.5S41.1,304.396,41.1,210.796z"/>
    </symbol>

    <symbol id="arrow-left" viewBox="0 0 512 512">
      <path d="m133 256l269-237c4-4 5-11 1-15-4-5-11-5-15-1l-278 245c-2 2-3 5-3 8 0 3 1 6 3 8l278 245c2 2 4 3 7 3 3 0 6-1 8-4 4-4 3-11-1-15z"/>
    </symbol>

    <symbol id="arrow-right" viewBox="0 0 512 512">
      <path d="m402 248l-278-245c-4-4-11-4-15 1-4 4-3 11 1 15l269 237-269 237c-4 4-5 11-1 15 2 3 5 4 8 4 3 0 5-1 7-3l278-245c2-2 3-5 3-8 0-3-1-6-3-8z"/>
    </symbol>

    <symbol id="logo" height="7.7em" viewBox="0 0 92 129" fill="none">
      <g filter="url(#filter0_d_1_4)">
      <path d="M20.7041 39.5793C21.1584 40.0793 23.8839 42.0793 25.2467 42.5793C25.2467 42.5793 29.2643 44.1756 29.7893 44.0793C32.939 43.5015 29.4511 38.5742 29.7893 35.0793C30.3364 29.4251 32.3441 26.09 34.7861 21.0793C38.1067 14.2657 42.9995 9.61369 49.7766 7.57927C54.7734 6.07927 63.2143 4.95977 66.5841 7.07928C69.7639 9.07927 72.7586 12.5581 75.215 17.5793C78.3948 24.0793 78.201 30.1408 75.215 37.0793C71.1267 46.5793 64.9868 53.5408 56.5904 58.5793C53.5823 60.3844 54.7734 59.5793 50.2308 62.0793C48.8028 62.8652 47.051 63.5793 47.051 63.5793L58.4075 70.0793C58.4075 70.0793 69.3096 77.0793 73.8522 82.0793C78.3948 87.0793 67.9469 90.0793 73.8522 95.5793C77.0937 98.5983 61.5873 110.579 48.4138 108.579C39.6271 107.245 24.3382 117.579 24.3382 117.579C24.3382 117.579 60.2245 18.5793 61.5873 16.0793C62.95 13.5793 50.6851 17.5793 48.4138 21.0793C46.1425 24.5793 14.3445 113.079 14.3445 113.079C14.3445 113.079 10.9019 110.8 8.43915 110.579C5.30598 110.299 2.22206 110.042 0.71678 113.079C-0.302592 115.136 -0.646004 116.079 2.5338 119.579C5.71361 123.079 15.9937 128.394 25.2467 127.579C36.6031 126.579 43.5173 124.513 47.051 123.579C58.4075 120.579 76.5778 127.579 79.3033 120.579C81.7372 114.328 88.8427 113.079 89.7512 103.079C90.6831 92.8227 89.0901 89.4065 83.3916 82.0793C76.8332 73.6462 55.2277 64.5793 55.2277 64.5793C55.2277 64.5793 59.6741 62.8279 63.8586 60.5793C70.4314 57.0471 74.0051 54.0191 78.3948 47.5793C84.3206 38.8859 88.3438 31.6676 86.1172 21.0793C84.2116 12.0177 78.3948 5.07927 72.4894 2.57927C66.8329 0.184592 55.8823 0.381557 46.1425 4.07928C36.2779 7.82438 28.8807 15.0793 24.3382 21.0793C20.3439 26.3551 20.2498 39.0793 20.7041 39.5793Z" fill="#C57EDE"/>
      <path d="M14.7988 56.0793C14.7988 56.0793 19.2797 51.0925 21.6126 49.5793C25.287 47.1959 28.7881 46.516 29.7893 51.0793C30.462 54.1457 30.2476 56.6613 27.9722 58.5793C24.23 61.7338 14.7988 56.0793 14.7988 56.0793Z" fill="#C57EDE"/>
      </g>
      <defs>
      <filter id="filter0_d_1_4" x="0" y="0.5" width="94" height="130.663" filterUnits="userSpaceOnUse" color-interpolation-filters="sRGB">
      <feFlood flood-opacity="0" result="BackgroundImageFix"/>
      <feColorMatrix in="SourceAlpha" type="matrix" values="0 0 0 0 0 0 0 0 0 0 0 0 0 0 0 0 0 0 127 0" result="hardAlpha"/>
      <feOffset dx="1.7" dy="1.7"/>
      <feGaussianBlur stdDeviation="1"/>
      <feColorMatrix type="matrix" values="0 0 0 0 0.223529 0 0 0 0 0.164706 0 0 0 0 0.580392 0 0 0 0.8 0"/>
      <feBlend mode="normal" in2="BackgroundImageFix" result="effect1_dropShadow_1_4"/>
      <feBlend mode="normal" in="SourceGraphic" in2="effect1_dropShadow_1_4" result="shape"/>
      </filter>
      </defs>
    </symbol>

</svg>