<svg xmlns="http://www.w3.org/2000/svg" style="display: none;">

    <symbol id="magnifying-glass" viewBox="0 0 512 512">
      <path d="M484.1,454.796l-110.5-110.6c29.8-36.3,47.6-82.8,47.6-133.4c0-116.3-94.3-210.6-210.6-210.6S0,94.496,0,210.796   s94.3,210.6,210.6,210.6c50.8,0,97.4-18,133.8-48l110.5,110.5c12.9,11.8,25,4.2,29.2,0C492.5,475.596,492.5,463.096,484.1,454.796z    M41.1,210.796c0-93.6,75.9-169.5,169.5-169.5s169.6,75.9,169.6,169.5s-75.9,169.5-169.5,169.5S41.1,304.396,41.1,210.796z"/>
    </symbol>

    <symbol id="arrow-left" viewBox="0 0 512 512">
      <path d="M213.7,256L213.7,256L213.7,256L380.9,81.9c4.2-4.3,4.1-11.4-0.2-15.8l-29.9-30.6c-4.3-4.4-11.3-4.5-15.5-0.2L131.1,247.9  c-2.2,2.2-3.2,5.2-3,8.1c-0.1,3,0.9,5.9,3,8.1l204.2,212.7c4.2,4.3,11.2,4.2,15.5-0.2l29.9-30.6c4.3-4.4,4.4-11.5,0.2-15.8  L213.7,256z"/>
    </symbol>

    <symbol id="arrow-right" viewBox="0 0 512 512">
      <path d="M298.3,256L298.3,256L298.3,256L131.1,81.9c-4.2-4.3-4.1-11.4,0.2-15.8l29.9-30.6c4.3-4.4,11.3-4.5,15.5-0.2l204.2,212.7  c2.2,2.2,3.2,5.2,3,8.1c0.1,3-0.9,5.9-3,8.1L176.7,476.8c-4.2,4.3-11.2,4.2-15.5-0.2L131.3,446c-4.3-4.4-4.4-11.5-0.2-15.8  L298.3,256z"/>
    </symbol>
    
    <symbol id="skip-left" viewBox="0 0 512 512">
      <path d="M96,96v320h79V274.2L416,416V96L175,237.8V96H96z"/>
    </symbol>

    <symbol id="skip-right" viewBox="0 0 512 512">
      <path d="M337,96v141.8L96,96v320l241-141.8V416h79V96H337z"/>
    </symbol>

    <symbol id="upload-note" viewBox="0 0 512 512" fill-rule="evenodd">
      <path d="M389.76 0c33.74 0 64.31 13.69 86.42 35.8C498.31 57.92 512 88.5 512 122.24c0 33.75-13.69 64.33-35.8 86.44-22.13 22.12-52.7 35.82-86.44 35.82-33.71 0-64.27-13.68-86.4-35.82-22.19-22.2-35.86-52.76-35.86-86.44 0-33.74 13.69-64.32 35.82-86.44C325.43 13.69 356.01 0 389.76 0zM127.13 93.07 45.4 179.44h81.73V93.07zM0 195.82c0-1.15.15-2.27.41-3.35.13-3.14 1.36-6.27 3.69-8.73L128.47 52.32c2.31-4.18 6.78-7.01 11.9-7.01h113.41c-4.87 8.6-8.97 17.7-12.16 27.2h-87.3v120.52c0 7.5-6.09 13.59-13.59 13.59H27.2v265.11h392.02V275.68c9.4-1.8 18.49-4.44 27.21-7.83V471.9c0 7.39-3.05 14.15-7.93 19.05-4.96 4.94-11.72 7.98-19.11 7.98H27.04c-7.43 0-14.21-3.06-19.09-7.94C3.07 486.1 0 479.32 0 471.9V195.82zm324.89 79.39c7.53 0 13.66 6.05 13.66 13.52s-6.13 13.52-13.66 13.52H121.54c-7.54 0-13.66-6.05-13.66-13.52s6.12-13.52 13.66-13.52h203.35zm0 91.23c7.53 0 13.66 6.05 13.66 13.52s-6.13 13.52-13.66 13.52H121.54c-7.54 0-13.66-6.05-13.66-13.52s6.12-13.52 13.66-13.52h203.35zM437.6 128.72c3.83-.15 6.55-1.43 8.12-3.81 4.28-6.39-1.55-12.71-5.59-17.15l-43.06-43.79c-4.65-4.58-10.02-4.63-14.67 0l-44.11 44.98c-3.78 4.26-8.45 10.07-4.51 15.96 1.6 2.38 4.3 3.66 8.13 3.81h21.23v33.01c0 6.28 5.18 11.5 11.51 11.5h30.19c6.34 0 11.52-5.18 11.52-11.5v-33.01h21.24z"/>
    </symbol>

    <symbol id="download-note" viewBox="0 0 512 512" fill-rule="evenodd">
      <path d="M389.76 0c33.74 0 64.31 13.69 86.42 35.8C498.31 57.92 512 88.5 512 122.24c0 33.75-13.69 64.33-35.8 86.44-22.13 22.12-52.7 35.82-86.44 35.82-33.71 0-64.27-13.68-86.4-35.82-22.19-22.2-35.86-52.76-35.86-86.44 0-33.74 13.69-64.32 35.82-86.44C325.43 13.69 356.01 0 389.76 0zM127.13 93.07 45.4 179.44h81.73V93.07zM0 195.82c0-1.15.15-2.27.41-3.35.13-3.14 1.36-6.27 3.69-8.73L128.47 52.32c2.31-4.18 6.78-7.01 11.9-7.01h113.41c-4.87 8.6-8.97 17.7-12.16 27.2h-87.3v120.52c0 7.5-6.09 13.59-13.59 13.59H27.2v265.11h392.02V275.68c9.4-1.8 18.49-4.44 27.21-7.83V471.9c0 7.39-3.05 14.15-7.93 19.05-4.96 4.94-11.72 7.98-19.11 7.98H27.04c-7.43 0-14.21-3.06-19.09-7.94C3.07 486.1 0 479.32 0 471.9V195.82zm324.89 79.39c7.53 0 13.66 6.05 13.66 13.52s-6.13 13.52-13.66 13.52H121.54c-7.54 0-13.66-6.05-13.66-13.52s6.12-13.52 13.66-13.52h203.35zm0 91.23c7.53 0 13.66 6.05 13.66 13.52s-6.13 13.52-13.66 13.52H121.54c-7.54 0-13.66-6.05-13.66-13.52s6.12-13.52 13.66-13.52h203.35zM437.6 110.4c3.83.15 6.55 1.43 8.12 3.82 4.28 6.39-1.55 12.7-5.59 17.15l-43.06 43.78c-4.65 4.58-10.02 4.64-14.67 0l-44.11-44.98c-3.78-4.26-8.45-10.07-4.51-15.95 1.6-2.39 4.3-3.67 8.13-3.82h21.23V77.39c0-6.28 5.18-11.49 11.51-11.49h30.19c6.34 0 11.52 5.17 11.52 11.49v33.01h21.24z"/>
    </symbol>

    <symbol id="analyze-note" viewBox="0 0 512 512" fill-rule="evenodd">
      <path d="M389.76 0c33.74 0 64.31 13.69 86.42 35.8C498.31 57.92 512 88.5 512 122.24c0 33.75-13.69 64.33-35.8 86.44-22.13 22.12-52.7 35.82-86.44 35.82-33.71 0-64.27-13.68-86.4-35.82-22.19-22.2-35.86-52.76-35.86-86.44 0-33.74 13.69-64.32 35.82-86.44C325.43 13.69 356.01 0 389.76 0zM127.13 93.07 45.4 179.44h81.73V93.07zM0 195.82c0-1.15.15-2.27.41-3.35.13-3.14 1.36-6.27 3.69-8.73L128.47 52.32c2.31-4.18 6.78-7.01 11.9-7.01h113.41c-4.87 8.6-8.97 17.7-12.16 27.2h-87.3v120.52c0 7.5-6.09 13.59-13.59 13.59H27.2v265.11h392.02V275.68c9.4-1.8 18.49-4.44 27.21-7.83V471.9c0 7.39-3.05 14.15-7.93 19.05-4.96 4.94-11.72 7.98-19.11 7.98H27.04c-7.43 0-14.21-3.06-19.09-7.94C3.07 486.1 0 479.32 0 471.9V195.82zm324.89 79.39c7.53 0 13.66 6.05 13.66 13.52s-6.13 13.52-13.66 13.52H121.54c-7.54 0-13.66-6.05-13.66-13.52s6.12-13.52 13.66-13.52h203.35zm0 91.23c7.53 0 13.66 6.05 13.66 13.52s-6.13 13.52-13.66 13.52H121.54c-7.54 0-13.66-6.05-13.66-13.52s6.12-13.52 13.66-13.52h203.35zM384.7 56.57c7.94 0 15.57 1.61 22.53 4.49a59.305 59.305 0 0 1 19.2 12.81 58.917 58.917 0 0 1 12.82 19.14 58.911 58.911 0 0 1 4.47 22.59c0 5.84-.84 11.52-2.44 16.86a58.366 58.366 0 0 1-5.42 12.6l16.88 20.77c1.57 1.73 1.47 4.46-.26 6.06l-16.35 14.93c-1.74 1.59-4.44 1.46-6.04-.26l-15.84-19.84c-3.91 2.25-8.08 4.1-12.46 5.41l-.16.04a58.71 58.71 0 0 1-16.93 2.48c-7.92 0-15.57-1.61-22.54-4.48-7.24-3-13.77-7.4-19.2-12.8a59.163 59.163 0 0 1-12.82-19.16 58.801 58.801 0 0 1-4.49-22.61c0-7.91 1.61-15.56 4.49-22.53 3-7.22 7.38-13.76 12.81-19.19a58.917 58.917 0 0 1 19.14-12.82 58.988 58.988 0 0 1 22.61-4.49zm26.08 32.96c-3.4-3.39-7.48-6.16-12-8.03l-.2-.09c-4.24-1.72-8.94-2.68-13.88-2.68-5.02 0-9.81 1-14.09 2.76a37.17 37.17 0 0 0-12 8.04c-6.66 6.67-10.8 15.9-10.8 26.07 0 5.04 1 9.82 2.76 14.11 1.88 4.52 4.65 8.6 8.03 11.98 3.43 3.41 7.5 6.18 11.98 8.04 4.32 1.78 9.11 2.77 14.12 2.77s9.79-.99 14.09-2.77c4.5-1.88 8.59-4.64 11.99-8.04 3.39-3.39 6.16-7.48 8.04-11.98 1.77-4.3 2.76-9.07 2.76-14.11 0-4.99-.99-9.79-2.76-14.08l-.11-.21c-1.84-4.41-4.57-8.42-7.93-11.78z"/>
    </symbol>
    
</svg>