<svg xmlns="http://www.w3.org/2000/svg" style="display: none;">

    <symbol id="magnifying-glass" viewBox="0 0 512 512">
      <path d="M484.1,454.796l-110.5-110.6c29.8-36.3,47.6-82.8,47.6-133.4c0-116.3-94.3-210.6-210.6-210.6S0,94.496,0,210.796   s94.3,210.6,210.6,210.6c50.8,0,97.4-18,133.8-48l110.5,110.5c12.9,11.8,25,4.2,29.2,0C492.5,475.596,492.5,463.096,484.1,454.796z    M41.1,210.796c0-93.6,75.9-169.5,169.5-169.5s169.6,75.9,169.6,169.5s-75.9,169.5-169.5,169.5S41.1,304.396,41.1,210.796z"/>
    </symbol>

    <symbol id="arrow-left" viewBox="0 0 512 512">
      <path d="M213.7,256L213.7,256L213.7,256L380.9,81.9c4.2-4.3,4.1-11.4-0.2-15.8l-29.9-30.6c-4.3-4.4-11.3-4.5-15.5-0.2L131.1,247.9  c-2.2,2.2-3.2,5.2-3,8.1c-0.1,3,0.9,5.9,3,8.1l204.2,212.7c4.2,4.3,11.2,4.2,15.5-0.2l29.9-30.6c4.3-4.4,4.4-11.5,0.2-15.8  L213.7,256z"/>
    </symbol>

    <symbol id="arrow-right" viewBox="0 0 512 512">
      <path d="M298.3,256L298.3,256L298.3,256L131.1,81.9c-4.2-4.3-4.1-11.4,0.2-15.8l29.9-30.6c4.3-4.4,11.3-4.5,15.5-0.2l204.2,212.7  c2.2,2.2,3.2,5.2,3,8.1c0.1,3-0.9,5.9-3,8.1L176.7,476.8c-4.2,4.3-11.2,4.2-15.5-0.2L131.3,446c-4.3-4.4-4.4-11.5-0.2-15.8  L298.3,256z"/>
    </symbol>
    
    <symbol id="skip-left" viewBox="0 0 512 512">
      <path d="M96,96v320h79V274.2L416,416V96L175,237.8V96H96z"/>
    </symbol>

    <symbol id="skip-right" viewBox="0 0 512 512">
      <path d="M337,96v141.8L96,96v320l241-141.8V416h79V96H337z"/>
    </symbol>
</svg>