<svg xmlns="http://www.w3.org/2000/svg" style="display: none;">

    <symbol id="magnifying-glass" viewBox="0 0 512 512">
      <path d="M484.1,454.796l-110.5-110.6c29.8-36.3,47.6-82.8,47.6-133.4c0-116.3-94.3-210.6-210.6-210.6S0,94.496,0,210.796   s94.3,210.6,210.6,210.6c50.8,0,97.4-18,133.8-48l110.5,110.5c12.9,11.8,25,4.2,29.2,0C492.5,475.596,492.5,463.096,484.1,454.796z    M41.1,210.796c0-93.6,75.9-169.5,169.5-169.5s169.6,75.9,169.6,169.5s-75.9,169.5-169.5,169.5S41.1,304.396,41.1,210.796z"/>
    </symbol>

    <symbol id="arrow-left" viewBox="0 0 512 512">
      <path d="m133 256l269-237c4-4 5-11 1-15-4-5-11-5-15-1l-278 245c-2 2-3 5-3 8 0 3 1 6 3 8l278 245c2 2 4 3 7 3 3 0 6-1 8-4 4-4 3-11-1-15z"/>
    </symbol>

    <symbol id="arrow-right" viewBox="0 0 512 512">
      <path d="m402 248l-278-245c-4-4-11-4-15 1-4 4-3 11 1 15l269 237-269 237c-4 4-5 11-1 15 2 3 5 4 8 4 3 0 5-1 7-3l278-245c2-2 3-5 3-8 0-3-1-6-3-8z"/>
    </symbol>

</svg>