<svg width="530" height="150" viewBox="0 30 530 150" fill="none" xmlns="http://www.w3.org/2000/svg">
    <title>BestFlow Title</title>
      <g filter="url(#filter0_d_106_3)">
      <path d="M20.7041 83.5793C21.1584 84.0793 23.8839 86.0793 25.2467 86.5793C25.2467 86.5793 29.2643 88.1756 29.7893 88.0793C32.939 87.5015 29.4511 82.5742 29.7893 79.0793C30.3364 73.4251 32.3441 70.09 34.7861 65.0793C38.1067 58.2657 42.9995 53.6137 49.7766 51.5793C54.7734 50.0793 63.2143 48.9598 66.5841 51.0793C69.7639 53.0793 72.7586 56.5581 75.215 61.5793C78.3948 68.0793 78.201 74.1408 75.215 81.0793C71.1267 90.5793 64.9868 97.5408 56.5904 102.579C53.5823 104.384 54.7734 103.579 50.2308 106.079C48.8028 106.865 47.051 107.579 47.051 107.579L58.4075 114.079C58.4075 114.079 69.3096 121.079 73.8522 126.079C78.3948 131.079 67.9469 134.079 73.8522 139.579C77.0937 142.598 61.5873 154.579 48.4138 152.579C39.6271 151.245 24.3382 161.579 24.3382 161.579C24.3382 161.579 60.2245 62.5793 61.5873 60.0793C62.95 57.5793 50.6851 61.5793 48.4138 65.0793C46.1425 68.5793 14.3445 157.079 14.3445 157.079C14.3445 157.079 10.9019 154.8 8.43915 154.579C5.30598 154.299 2.22206 154.042 0.71678 157.079C-0.302592 159.136 -0.646004 160.079 2.5338 163.579C5.71361 167.079 15.9937 172.394 25.2467 171.579C36.6031 170.579 43.5173 168.513 47.051 167.579C58.4075 164.579 76.5778 171.579 79.3033 164.579C81.7372 158.328 88.8427 157.079 89.7512 147.079C90.6831 136.823 89.0901 133.407 83.3916 126.079C76.8332 117.646 55.2277 108.579 55.2277 108.579C55.2277 108.579 59.6741 106.828 63.8586 104.579C70.4314 101.047 74.0051 98.0191 78.3948 91.5793C84.3206 82.8859 88.3438 75.6676 86.1172 65.0793C84.2116 56.0177 78.3948 49.0793 72.4894 46.5793C66.8329 44.1846 55.8823 44.3816 46.1425 48.0793C36.2779 51.8244 28.8807 59.0793 24.3382 65.0793C20.3439 70.3551 20.2498 83.0793 20.7041 83.5793Z" fill="#C57EDE"/>
      <path d="M14.7988 100.079C14.7988 100.079 19.2797 95.0925 21.6126 93.5793C25.287 91.1959 28.7881 90.516 29.7893 95.0793C30.462 98.1457 30.2476 100.661 27.9722 102.579C24.23 105.734 14.7988 100.079 14.7988 100.079Z" fill="#C57EDE"/>
      </g>
      <g filter="url(#filter1_d_106_3)">
      <path d="M153.232 138.456C154.341 138.456 155.195 138.968 155.792 139.992C156.475 141.016 156.816 142.424 156.816 144.216C156.816 147.629 156.005 150.275 154.384 152.152C151.227 155.992 146.747 159.533 140.944 162.776C135.227 166.019 129.083 167.64 122.512 167.64C113.552 167.64 106.597 165.208 101.648 160.344C96.6987 155.48 94.224 148.824 94.224 140.376C94.224 134.488 95.4613 129.027 97.936 123.992C100.411 118.872 103.824 114.819 108.176 111.832C112.613 108.845 117.605 107.352 123.152 107.352C128.101 107.352 132.069 108.845 135.056 111.832C138.043 114.733 139.536 118.701 139.536 123.736C139.536 129.624 137.403 134.701 133.136 138.968C128.955 143.149 121.829 146.477 111.76 148.952C113.893 152.877 117.947 154.84 123.92 154.84C127.76 154.84 132.112 153.517 136.976 150.872C141.925 148.141 146.192 144.6 149.776 140.248C150.8 139.053 151.952 138.456 153.232 138.456ZM120.976 119.896C117.819 119.896 115.131 121.731 112.912 125.4C110.779 129.069 109.712 133.507 109.712 138.712V138.968C114.747 137.773 118.715 135.981 121.616 133.592C124.517 131.203 125.968 128.429 125.968 125.272C125.968 123.651 125.499 122.371 124.56 121.432C123.707 120.408 122.512 119.896 120.976 119.896ZM170.202 170.456C165.765 170.456 162.351 169.432 159.962 167.384C157.658 165.336 156.506 163.032 156.506 160.472C156.506 158.253 157.317 156.333 158.938 154.712C160.559 153.091 162.949 152.28 166.106 152.28C167.215 152.28 168.495 152.408 169.946 152.664C171.482 152.835 172.634 152.963 173.402 153.048C173.317 150.829 172.805 148.739 171.866 146.776C171.013 144.813 169.903 142.936 168.538 141.144C167.173 139.267 165.893 137.645 164.698 136.28C162.053 141.315 159.407 145.496 156.762 148.824C154.202 152.152 151.386 155.309 148.314 158.296C146.778 159.832 145.157 160.6 143.45 160.6C142.085 160.6 140.975 160.131 140.122 159.192C139.269 158.168 138.842 156.931 138.842 155.48C138.842 153.773 139.439 152.195 140.634 150.744L142.298 148.696C146.991 142.893 150.533 138.115 152.922 134.36C154.373 131.885 156.079 128.6 158.042 124.504C160.005 120.323 161.925 116.013 163.802 111.576C165.423 107.821 168.794 105.944 173.914 105.944C176.303 105.944 177.967 106.157 178.906 106.584C179.845 107.011 180.314 107.693 180.314 108.632C180.314 109.144 180.143 109.955 179.802 111.064C179.461 112.173 178.991 113.283 178.394 114.392C176.858 117.464 176.09 120.067 176.09 122.2C176.09 123.48 176.517 124.888 177.37 126.424C178.309 127.96 179.717 129.88 181.594 132.184C184.325 135.768 186.373 138.84 187.738 141.4C189.189 143.875 189.914 146.605 189.914 149.592C189.914 150.445 189.829 151.64 189.658 153.176C193.839 151.555 198.746 147.245 204.378 140.248C205.402 139.053 206.554 138.456 207.834 138.456C208.943 138.456 209.797 138.968 210.394 139.992C211.077 141.016 211.418 142.424 211.418 144.216C211.418 147.459 210.607 150.104 208.986 152.152C204.719 157.443 200.623 161.069 196.698 163.032C192.858 164.909 188.079 165.933 182.362 166.104C178.949 169.005 174.895 170.456 170.202 170.456ZM258.107 138.456C259.216 138.456 260.07 138.968 260.667 139.992C261.35 141.016 261.691 142.424 261.691 144.216C261.691 147.629 260.88 150.275 259.259 152.152C255.59 156.675 251.579 160.387 247.227 163.288C242.875 166.189 237.883 167.64 232.251 167.64C214.843 167.64 206.139 155.395 206.139 130.904C206.139 127.149 206.267 123.352 206.523 119.512H201.531C198.971 119.512 197.222 119.043 196.283 118.104C195.43 117.165 195.003 115.672 195.003 113.624C195.003 108.845 196.923 106.456 200.763 106.456H208.059C209.51 97.0693 211.728 88.4933 214.715 80.728C217.702 72.9627 221.286 66.776 225.467 62.168C229.734 57.56 234.299 55.256 239.163 55.256C242.747 55.256 245.563 56.8347 247.611 59.992C249.659 63.1493 250.683 67.1173 250.683 71.896C250.683 85.1227 245.136 96.6427 234.043 106.456H248.379C249.744 106.456 250.726 106.755 251.323 107.352C251.92 107.949 252.219 109.059 252.219 110.68C252.219 116.568 247.398 119.512 237.755 119.512H222.139C221.968 123.779 221.883 127.107 221.883 129.496C221.883 138.371 222.907 144.6 224.955 148.184C227.088 151.768 230.416 153.56 234.939 153.56C238.608 153.56 241.851 152.451 244.667 150.232C247.483 148.013 250.811 144.685 254.651 140.248C255.675 139.053 256.827 138.456 258.107 138.456ZM235.707 67.544C234.427 67.544 232.976 69.1653 231.355 72.408C229.819 75.5653 228.326 80.0027 226.875 85.72C225.51 91.352 224.358 97.624 223.419 104.536C228.454 100.184 232.208 95.32 234.683 89.944C237.243 84.4827 238.523 79.5333 238.523 75.096C238.523 70.0613 237.584 67.544 235.707 67.544ZM358.661 60.888C361.05 61.2293 362.672 61.9547 363.525 63.064C364.464 64.1733 364.933 65.624 364.933 67.416C364.933 73.304 361.776 76.0347 355.461 75.608L350.981 75.224C345.946 74.7973 340.912 74.456 335.877 74.2C330.928 73.944 325.722 73.816 320.261 73.816H314.501C313.477 86.4453 312.41 97.9653 311.301 108.376L333.317 107.992C336.474 107.992 338.565 108.547 339.589 109.656C340.698 110.765 341.253 112.259 341.253 114.136C341.253 117.037 340.4 119.341 338.693 121.048C336.986 122.669 334.554 123.48 331.397 123.48H309.509L308.741 128.984C306.949 143.064 303.109 153.091 297.221 159.064C291.418 165.037 283.397 168.024 273.157 168.024C267.354 168.024 262.021 166.787 257.157 164.312C252.293 161.752 248.709 158.68 246.405 155.096C245.466 153.645 244.997 151.896 244.997 149.848C244.997 147.8 245.466 146.008 246.405 144.472C247.429 142.936 248.666 142.168 250.117 142.168C251.141 142.168 252.122 142.509 253.061 143.192C254.085 143.875 255.365 145.197 256.901 147.16C260.997 152.536 266.074 155.224 272.133 155.224C276.997 155.224 281.05 153.261 284.293 149.336C287.621 145.325 289.754 139.053 290.693 130.52L291.461 123.48H285.317C283.354 123.48 281.648 122.925 280.197 121.816C278.832 120.707 278.149 119.128 278.149 117.08C278.149 114.435 278.832 112.429 280.197 111.064C281.562 109.613 283.568 108.888 286.213 108.888C288.602 108.888 290.949 108.845 293.253 108.76C294.277 99.3733 295.386 87.9813 296.581 74.584C287.365 75.4373 280.88 76.9307 277.125 79.064C273.37 81.1973 271.493 84.3547 271.493 88.536C271.493 91.4373 272.346 94.2107 274.053 96.856C274.565 97.624 274.821 98.392 274.821 99.16C274.821 100.696 273.968 102.061 272.261 103.256C270.554 104.365 268.634 104.92 266.501 104.92C264.197 104.92 262.234 104.237 260.613 102.872C259.589 102.019 258.608 100.269 257.669 97.624C256.73 94.9787 256.261 92.0347 256.261 88.792C256.261 78.2107 261.68 70.5307 272.517 65.752C283.44 60.9733 299.354 58.584 320.261 58.584C334.768 58.584 347.568 59.352 358.661 60.888ZM390.906 138.456C392.015 138.456 392.869 138.968 393.466 139.992C394.149 141.016 394.49 142.424 394.49 144.216C394.49 147.629 393.679 150.275 392.058 152.152C388.389 156.675 384.378 160.387 380.026 163.288C375.759 166.189 370.895 167.64 365.434 167.64C357.925 167.64 352.335 164.227 348.666 157.4C345.082 150.573 343.29 141.741 343.29 130.904C343.29 120.493 344.613 108.632 347.258 95.32C349.989 82.008 353.957 70.5733 359.162 61.016C364.453 51.4587 370.725 46.68 377.978 46.68C382.074 46.68 385.274 48.6 387.578 52.44C389.967 56.1947 391.162 61.6133 391.162 68.696C391.162 78.8507 388.346 90.6267 382.714 104.024C377.082 117.421 369.445 130.691 359.802 143.832C360.399 147.331 361.381 149.848 362.746 151.384C364.111 152.835 365.903 153.56 368.122 153.56C371.621 153.56 374.693 152.579 377.338 150.616C379.983 148.568 383.354 145.112 387.45 140.248C388.474 139.053 389.626 138.456 390.906 138.456ZM375.162 59.352C373.199 59.352 370.981 62.8933 368.506 69.976C366.031 77.0587 363.855 85.848 361.978 96.344C360.101 106.84 359.077 116.909 358.906 126.552C364.965 116.568 369.786 106.584 373.37 96.6C376.954 86.5307 378.746 77.3573 378.746 69.08C378.746 62.5947 377.551 59.352 375.162 59.352ZM449.424 127.704C450.533 127.704 451.387 128.259 451.984 129.368C452.581 130.477 452.88 131.885 452.88 133.592C452.88 137.688 451.643 140.12 449.168 140.888C444.048 142.68 438.416 143.704 432.272 143.96C430.651 151.128 427.451 156.888 422.672 161.24C417.893 165.507 412.475 167.64 406.416 167.64C401.296 167.64 396.901 166.403 393.232 163.928C389.648 161.453 386.917 158.168 385.04 154.072C383.163 149.976 382.224 145.539 382.224 140.76C382.224 134.275 383.461 128.515 385.936 123.48C388.411 118.36 391.824 114.392 396.176 111.576C400.528 108.675 405.349 107.224 410.64 107.224C417.125 107.224 422.331 109.485 426.256 114.008C430.267 118.445 432.613 123.949 433.296 130.52C437.307 130.264 442.085 129.411 447.632 127.96C448.315 127.789 448.912 127.704 449.424 127.704ZM407.44 154.072C410.171 154.072 412.517 152.963 414.48 150.744C416.528 148.525 417.893 145.325 418.576 141.144C415.931 139.352 413.883 137.005 412.432 134.104C411.067 131.203 410.384 128.131 410.384 124.888C410.384 123.523 410.512 122.157 410.768 120.792H410.128C406.715 120.792 403.856 122.456 401.552 125.784C399.333 129.027 398.224 133.635 398.224 139.608C398.224 144.301 399.12 147.885 400.912 150.36C402.789 152.835 404.965 154.072 407.44 154.072ZM519.816 107.224C524.509 107.224 526.856 108.717 526.856 111.704C526.856 112.728 526.515 114.136 525.832 115.928C518.92 132.056 512.392 145.069 506.248 154.968C503.176 159.832 500.403 163.16 497.928 164.952C495.453 166.744 492.637 167.64 489.48 167.64C486.067 167.64 483.507 166.317 481.8 163.672C480.179 161.027 479.155 156.675 478.728 150.616C478.557 148.397 478.387 145.069 478.216 140.632C475.571 147.971 473.139 153.603 470.92 157.528C468.787 161.368 466.653 164.013 464.52 165.464C462.472 166.915 459.997 167.64 457.096 167.64C453.597 167.64 450.824 166.275 448.776 163.544C446.813 160.813 445.576 156.504 445.064 150.616C444.04 138.669 443.528 128.216 443.528 119.256V114.776C443.613 111.875 444.339 109.912 445.704 108.888C447.069 107.779 449.288 107.224 452.36 107.224C454.579 107.224 456.2 107.736 457.224 108.76C458.333 109.699 458.888 111.32 458.888 113.624C458.888 123.437 459.485 136.195 460.68 151.896C463.496 145.923 466.099 140.205 468.488 134.744C470.877 129.283 473.651 122.285 476.808 113.752C477.747 111.192 478.856 109.485 480.136 108.632C481.501 107.693 483.08 107.224 484.872 107.224C487.261 107.224 489.053 107.736 490.248 108.76C491.443 109.699 492.04 111.32 492.04 113.624V133.464C492.04 141.997 492.083 148.141 492.168 151.896C496.093 145.069 499.293 139.139 501.768 134.104C504.328 129.069 507.187 122.285 510.344 113.752C511.283 111.192 512.52 109.485 514.056 108.632C515.592 107.693 517.512 107.224 519.816 107.224Z" fill="#C57EDE"/>
      </g>
      <defs>
      <filter id="filter0_d_106_3" x="0" y="45" width="93" height="129.163" filterUnits="userSpaceOnUse" color-interpolation-filters="sRGB">
      <feFlood flood-opacity="0" result="BackgroundImageFix"/>
      <feColorMatrix in="SourceAlpha" type="matrix" values="0 0 0 0 0 0 0 0 0 0 0 0 0 0 0 0 0 0 127 0" result="hardAlpha"/>
      <feOffset dx="2" dy="1.5"/>
      <feGaussianBlur stdDeviation="1.25"/>
      <feColorMatrix type="matrix" values="0 0 0 0 0.223529 0 0 0 0 0.164706 0 0 0 0 0.580392 0 0 0 0.9 0"/>
      <feBlend mode="normal" in2="BackgroundImageFix" result="effect1_dropShadow_106_3"/>
      <feBlend mode="normal" in="SourceGraphic" in2="effect1_dropShadow_106_3" result="shape"/>
      </filter>
      <filter id="filter1_d_106_3" x="94.224" y="46.68" width="435.632" height="125.776" filterUnits="userSpaceOnUse" color-interpolation-filters="sRGB">
      <feFlood flood-opacity="0" result="BackgroundImageFix"/>
      <feColorMatrix in="SourceAlpha" type="matrix" values="0 0 0 0 0 0 0 0 0 0 0 0 0 0 0 0 0 0 127 0" result="hardAlpha"/>
      <feOffset dx="2" dy="1"/>
      <feGaussianBlur stdDeviation="1.25"/>
      <feColorMatrix type="matrix" values="0 0 0 0 0.223529 0 0 0 0 0.164706 0 0 0 0 0.580392 0 0 0 0.9 0"/>
      <feBlend mode="normal" in2="BackgroundImageFix" result="effect1_dropShadow_106_3"/>
      <feBlend mode="normal" in="SourceGraphic" in2="effect1_dropShadow_106_3" result="shape"/>
      </filter>
      </defs>
</svg>